<svg width="150" height="150" viewBox="0 0 150 150" fill="none" xmlns="http://www.w3.org/2000/svg">
<circle cx="75" cy="75" r="73.5" stroke="#572304" stroke-width="3"/>
<g clip-path="url(#clip0_68_312)">
<path d="M85.9383 115H38.7617L38.8983 113.208C39.6633 103.09 45.3783 97.048 55.8933 95.233V93.333H52.56V83.333H72.56V93.333H69.2267V95.233C79.5983 97.0247 85.0267 102.916 85.805 113.208L85.9383 115ZM42.4217 111.666H82.285C81.135 103.655 76.4583 99.513 67.3417 98.3197L65.8917 98.1297V89.9997H69.225V86.6663H55.8917V89.9997H59.225V98.128L57.775 98.318C48.525 99.5297 43.6033 103.788 42.4217 111.666Z" fill="#572304"/>
<path d="M68.3333 80.025C67.9067 80.025 67.48 79.8617 67.155 79.5367C66.5033 78.885 66.5033 77.8317 67.155 77.18L107.737 36.5967C108.388 35.945 109.442 35.945 110.093 36.5967C110.745 37.2483 110.745 38.3017 110.093 38.9533L69.5117 79.5367C69.1867 79.8617 68.76 80.025 68.3333 80.025Z" fill="#572304"/>
<path d="M73.56 74.7965C73.1333 74.7965 72.7067 74.6331 72.3817 74.3081C67.095 69.0215 71.2367 56.5981 81.81 46.0248C86.855 40.9798 92.5217 37.2065 97.765 35.3998C98.2733 35.2231 98.8383 35.3048 99.275 35.6181C99.7133 35.9315 99.9733 36.4365 99.9733 36.9748V48.3315C99.9733 49.2515 99.2267 49.9981 98.3067 49.9981C97.3867 49.9981 96.64 49.2515 96.64 48.3315V39.4331C92.5167 41.2981 88.08 44.4665 84.165 48.3815C74.4417 58.1031 71.3917 68.6065 74.7367 71.9515C75.3883 72.6031 75.3883 73.6581 74.7367 74.3081C74.4117 74.6348 73.9867 74.7965 73.56 74.7965Z" fill="#572304"/>
<path d="M102.417 61.6663H86.6667C85.7467 61.6663 85 60.9197 85 59.9997C85 59.0797 85.7467 58.333 86.6667 58.333H102.417C103.337 58.333 104.083 59.0797 104.083 59.9997C104.083 60.9197 103.337 61.6663 102.417 61.6663Z" fill="#572304"/>
<path d="M78.4883 76.5698C76 76.5698 73.905 75.8331 72.3817 74.3098C71.73 73.6598 71.73 72.6048 72.3817 71.9531C73.0333 71.3015 74.0867 71.3015 74.7383 71.9531C77.4467 74.6598 83.855 73.1081 90.815 68.3348H80C79.08 68.3348 78.3333 67.5881 78.3333 66.6681C78.3333 65.7481 79.08 65.0015 80 65.0015H95.75C96.45 65.0015 97.0767 65.4398 97.3167 66.0981C97.5567 66.7565 97.3583 67.4948 96.8217 67.9448C90.12 73.5631 83.5083 76.5698 78.4883 76.5698Z" fill="#572304"/>
<path d="M107.417 55H93.3333C92.4133 55 91.6667 54.2533 91.6667 53.3333C91.6667 52.4133 92.4133 51.6667 93.3333 51.6667H106.437C109.515 45.9417 110.012 41.2283 107.737 38.9533C107.085 38.3017 107.085 37.2467 107.737 36.5967C108.388 35.945 109.442 35.945 110.093 36.5967C113.658 40.1617 113.21 46.5633 108.863 54.1617C108.567 54.68 108.015 55 107.417 55Z" fill="#572304"/>
</g>
<defs>
<clipPath id="clip0_68_312">
<rect width="80" height="80" fill="white" transform="translate(35 35)"/>
</clipPath>
</defs>
</svg>
