<svg width="150" height="150" viewBox="0 0 150 150" fill="none" xmlns="http://www.w3.org/2000/svg">
<circle cx="75" cy="75" r="73.5" stroke="#572304" stroke-width="3"/>
<path d="M109.639 117.233L98.5059 117.246L76.2207 120.668C75.1822 120.817 74.1233 120.625 73.2031 120.121L41.7207 102.889C41.6734 102.863 41.6317 102.828 41.5982 102.786C41.5646 102.743 41.5399 102.695 41.5254 102.643C41.511 102.589 41.5076 102.534 41.5154 102.479C41.5231 102.424 41.5418 102.372 41.5703 102.324C42.3207 101.042 43.4702 100.041 44.8431 99.4734C46.2161 98.906 47.7372 98.8036 49.1738 99.1819L62.6699 102.756C62.5455 103.526 62.7003 104.315 63.1065 104.98C63.5126 105.645 64.1434 106.144 64.8848 106.385L83.5098 112.358C83.6237 112.392 83.7422 112.41 83.8613 112.41C84.1406 112.418 84.4129 112.323 84.6275 112.144C84.8421 111.965 84.9843 111.715 85.0276 111.439C85.0709 111.163 85.0123 110.88 84.8627 110.644C84.7132 110.409 84.4829 110.235 84.2148 110.156L65.5918 104.184C65.3537 104.107 65.1552 103.941 65.039 103.719C64.9228 103.498 64.8983 103.24 64.9707 103L65.2461 102.1C65.4946 101.286 65.9928 100.572 66.67 100.057C67.3473 99.5426 68.1692 99.2541 69.0195 99.2327L79.7793 98.9573C85.0678 98.8185 90.2968 100.1 94.9219 102.668L98.7969 105.578C98.9969 105.728 99.2403 105.809 99.4902 105.809H109.646C109.802 105.815 109.957 105.79 110.102 105.735C110.247 105.68 110.38 105.596 110.492 105.489C110.604 105.381 110.693 105.252 110.754 105.109C110.815 104.966 110.846 104.813 110.846 104.657C110.846 104.502 110.815 104.348 110.754 104.206C110.693 104.063 110.604 103.934 110.492 103.826C110.38 103.718 110.247 103.635 110.102 103.58C109.957 103.525 109.802 103.5 109.646 103.506H99.8809L96.1875 100.742C91.4463 98.0801 86.1054 96.6686 80.668 96.6408C80.668 96.6408 80.668 96.6213 80.668 96.6096V89.6994C87.4418 88.5144 93.6435 85.1499 98.3301 80.1174C98.3734 80.078 98.4139 80.0356 98.4512 79.9905C103.795 74.2152 106.786 66.6504 106.837 58.7822C106.888 50.9139 103.995 43.311 98.7266 37.467C98.6934 37.4214 98.6568 37.3783 98.6172 37.3381L98.582 37.3069C95.078 33.4563 90.6761 30.5322 85.7683 28.7949C80.8606 27.0576 75.5993 26.561 70.4531 27.3495C65.307 28.1379 60.4357 30.1869 56.2732 33.3138C52.1107 36.4408 48.7861 40.5487 46.5957 45.2717C46.5424 45.355 46.5003 45.4449 46.4707 45.5393C44.609 49.6332 43.6479 54.0791 43.6523 58.5764C43.6523 73.7463 54.3945 86.4514 68.6836 89.4807V96.6174C68.684 96.7284 68.6997 96.8389 68.7305 96.9455C67.598 97.0156 66.505 97.3882 65.5654 98.0244C64.6259 98.6606 63.8742 99.5372 63.3887 100.563L49.7734 96.9573C47.847 96.4457 45.8058 96.581 43.9638 97.3425C42.1218 98.104 40.5809 99.4495 39.5781 101.172C39.3963 101.485 39.2791 101.831 39.2334 102.189C39.1877 102.548 39.2145 102.912 39.3121 103.261C39.4097 103.609 39.5762 103.934 39.8017 104.217C40.0272 104.499 40.3072 104.734 40.625 104.906L72.1152 122.143C73.1745 122.716 74.36 123.016 75.5645 123.016C75.9015 123.015 76.2382 122.993 76.5723 122.947L98.6855 119.531H109.639C109.944 119.531 110.237 119.41 110.453 119.194C110.67 118.978 110.791 118.685 110.791 118.379C110.791 118.074 110.67 117.78 110.453 117.564C110.237 117.348 109.944 117.227 109.639 117.227V117.233ZM68.209 75.4026L63.7949 69.0354L71.4844 73.4377C71.6408 73.5256 71.8153 73.5764 71.9944 73.5863C72.1735 73.5961 72.3525 73.5646 72.5176 73.4944C72.6822 73.4223 72.8277 73.3127 72.9423 73.1743C73.0569 73.036 73.1376 72.8727 73.1777 72.6975L74.666 66.2131L76.1523 72.6975C76.1932 72.8723 76.2741 73.0353 76.3887 73.1736C76.5032 73.3119 76.6483 73.4217 76.8125 73.4944C76.9778 73.565 77.1572 73.5966 77.3367 73.5867C77.5162 73.5769 77.691 73.5259 77.8476 73.4377L85.5469 69.0354L81.1309 75.4045C79.3238 78.0089 78.3567 81.1038 78.3594 84.2737V96.6174C78.3594 96.6428 78.3594 96.6682 78.3594 96.6936L70.9473 96.8889C70.9676 96.8011 70.9781 96.7114 70.9785 96.6213V84.2776C70.9832 81.1058 70.0167 78.0087 68.209 75.4026ZM98.6973 76.092V64.844C98.6978 64.6925 98.6684 64.5424 98.6107 64.4023C98.5531 64.2622 98.4683 64.1348 98.3613 64.0276L93.2422 58.9104L97.6269 54.5295C97.734 54.4223 97.8188 54.295 97.8765 54.1549C97.9342 54.0148 97.9635 53.8646 97.9629 53.7131V47.1858C97.9634 47.0346 97.9339 46.8848 97.8763 46.745C97.8186 46.6052 97.7339 46.4782 97.6269 46.3713L94.4121 43.1643L97.7324 39.844C101.953 44.8949 104.344 51.2226 104.519 57.8022C104.694 64.3817 102.643 70.8277 98.6973 76.0959V76.092ZM75.2402 29.2971C78.1871 29.2957 81.1173 29.7396 83.9316 30.6135L79.4687 35.0705H73.2051C73.0539 35.0701 72.9041 35.0995 72.7643 35.1572C72.6245 35.2148 72.4975 35.2995 72.3906 35.4065L67.3672 40.4299C67.2601 40.5371 67.1753 40.6644 67.1176 40.8045C67.06 40.9447 67.0306 41.0948 67.0312 41.2463V51.2541H62.2422L56.0547 45.0686C55.8375 44.8534 55.5441 44.7327 55.2383 44.7326H49.4355C51.9421 40.0694 55.6647 36.172 60.2081 33.4543C64.7515 30.7366 69.946 29.3 75.2402 29.2971ZM45.9434 58.594C45.9388 54.6262 46.7457 50.6994 48.3144 47.0549H54.7598L60.9414 53.2385C61.0483 53.3454 61.1753 53.4302 61.3151 53.4878C61.4548 53.5455 61.6047 53.5749 61.7559 53.5744H68.1738C68.4794 53.5744 68.7725 53.453 68.9887 53.2369C69.2048 53.0208 69.3262 52.7277 69.3262 52.4221V41.7229L73.6758 37.3733H79.9375C80.0887 37.3737 80.2385 37.3443 80.3783 37.2867C80.5181 37.229 80.6451 37.1443 80.752 37.0373L86.3281 31.4807H86.3379C90.0439 33.0047 93.3991 35.2705 96.1973 38.1389L91.9707 42.344C91.8624 42.4512 91.7768 42.579 91.7187 42.7199C91.6607 42.8608 91.6315 43.0119 91.6328 43.1643C91.6322 43.4702 91.753 43.7638 91.9687 43.9807L95.6602 47.6565V53.2366L90.7988 58.0959C90.5838 58.3128 90.4631 58.6059 90.4631 58.9114C90.4631 59.2168 90.5838 59.5099 90.7988 59.7268L96.3945 65.3205V78.7971C92.1748 83.2251 86.6736 86.2196 80.6641 87.3596V84.2737C80.6597 81.5716 81.4846 78.9334 83.0273 76.7151L90.3379 66.1682C90.4878 65.9535 90.56 65.6941 90.5426 65.4329C90.5252 65.1716 90.4191 64.9241 90.242 64.7313C90.0649 64.5384 89.8272 64.4118 89.5684 64.3722C89.3095 64.3327 89.045 64.3827 88.8184 64.5139L78.0566 70.6741L75.793 60.8069C75.5527 59.7619 73.7891 59.7619 73.5488 60.8069L71.2891 70.6701L60.5293 64.51C60.3026 64.38 60.0384 64.331 59.7802 64.3709C59.5219 64.4108 59.2849 64.5373 59.108 64.7296C58.9311 64.922 58.8249 65.1687 58.8067 65.4294C58.7884 65.6901 58.8594 65.9492 59.0078 66.1643L66.3203 76.7112C67.8621 78.9307 68.6868 81.5693 68.6836 84.2717V87.1194C55.6758 84.135 45.9512 72.4709 45.9512 58.5764L45.9434 58.594Z" fill="#572304"/>
<path d="M77.0059 51.2147C77.2228 51.4297 77.5158 51.5504 77.8213 51.5504C78.1267 51.5504 78.4198 51.4297 78.6367 51.2147L81.541 48.3104C81.7563 48.094 81.8771 47.8011 81.8769 47.4959V44.4959C81.8767 44.3268 81.8392 44.1597 81.7669 44.0068C81.6947 43.8538 81.5895 43.7187 81.459 43.6112C81.33 43.5009 81.178 43.421 81.014 43.3774C80.8501 43.3338 80.6784 43.3276 80.5117 43.3592L73.0898 44.7479C72.8848 44.7854 72.6939 44.8779 72.5374 45.0155C72.3808 45.1531 72.2646 45.3306 72.2012 45.5291C72.1407 45.73 72.1352 45.9435 72.1854 46.1472C72.2355 46.351 72.3395 46.5375 72.4863 46.6873L77.0059 51.2147ZM79.5723 45.8846V47.0174L77.8144 48.7752L75.666 46.6268L79.5723 45.8846Z" fill="black"/>
</svg>
