<svg width="150" height="150" viewBox="0 0 150 150" fill="none" xmlns="http://www.w3.org/2000/svg">
<circle cx="75" cy="75" r="73.5" stroke="#572304" stroke-width="3"/>
<path d="M88.125 57.1405C88.021 56.8284 87.8219 56.5567 87.5558 56.3633C87.2896 56.17 86.9696 56.0648 86.6406 56.0624H78.875L76.4844 48.6874C76.3816 48.3748 76.1828 48.1026 75.9162 47.9096C75.6497 47.7167 75.329 47.6128 75 47.6128C74.6709 47.6128 74.3503 47.7167 74.0837 47.9096C73.8172 48.1026 73.6184 48.3748 73.5156 48.6874L71.125 56.0624H63.3594C63.0304 56.0648 62.7104 56.17 62.4442 56.3633C62.178 56.5567 61.979 56.8284 61.875 57.1405C61.7711 57.4557 61.7712 57.7958 61.8753 58.1109C61.9794 58.426 62.182 58.6993 62.4531 58.8905L68.7187 63.453L66.3281 70.828C66.2249 71.1417 66.2237 71.4801 66.3248 71.7945C66.4259 72.1089 66.6239 72.3832 66.8906 72.578C67.1602 72.7686 67.4823 72.871 67.8125 72.871C68.1427 72.871 68.4647 72.7686 68.7344 72.578L75 68.0155L81.2656 72.578C81.5375 72.7644 81.8579 72.8676 82.1875 72.8749C82.5179 72.8723 82.8396 72.7687 83.1094 72.578C83.376 72.3832 83.5741 72.1089 83.6752 71.7945C83.7762 71.4801 83.7751 71.1417 83.6719 70.828L81.2812 63.453L87.5469 58.8905C87.818 58.6993 88.0205 58.426 88.1246 58.1109C88.2287 57.7958 88.2288 57.4557 88.125 57.1405ZM78.5312 61.5937C78.2629 61.7874 78.0626 62.0608 77.9588 62.375C77.855 62.6893 77.853 63.0282 77.9531 63.3437L79.2187 67.2187L75.9219 64.8124C75.6532 64.6194 75.3308 64.5155 75 64.5155C74.6692 64.5155 74.3467 64.6194 74.0781 64.8124L70.7812 67.2187L72.0469 63.3437C72.147 63.0282 72.145 62.6893 72.0412 62.375C71.9374 62.0608 71.737 61.7874 71.4687 61.5937L68.1719 59.1874H72.25C72.58 59.1893 72.902 59.0858 73.169 58.8918C73.4361 58.6979 73.6341 58.4237 73.7344 58.1093L75 54.2343L76.2656 58.1093C76.3658 58.4237 76.5639 58.6979 76.8309 58.8918C77.098 59.0858 77.42 59.1893 77.75 59.1874H81.8281L78.5312 61.5937Z" fill="#572304"/>
<path d="M75 41.0313C69.6657 41.0298 64.5371 43.089 60.685 46.7789C56.8328 50.4688 54.555 55.5042 54.3272 60.8336C54.0993 66.163 55.939 71.3744 59.4622 75.3796C62.9853 79.3849 67.9194 81.8743 73.2343 82.3281C73.8281 82.375 74.4062 82.4063 75 82.4063C75.5312 82.4063 76.0781 82.375 76.6093 82.3281H76.7656V82.3125C82.0785 81.8588 87.0108 79.3702 90.5325 75.3664C94.0542 71.3626 95.8931 66.1531 95.6653 60.8258C95.4374 55.4984 93.1604 50.465 89.3097 46.7765C85.459 43.088 80.3322 41.0297 75 41.0313ZM90.3281 70.2812C90.324 70.2812 90.32 70.2829 90.317 70.2858C90.3141 70.2888 90.3125 70.2927 90.3125 70.2969C88.9148 72.8017 86.9225 74.9242 84.511 76.4774C82.0995 78.0306 79.343 78.9666 76.4843 79.2031L76.4687 79.2188H76.4531C75.476 79.315 74.4916 79.3097 73.5156 79.2031C69.7386 78.8813 66.1672 77.3456 63.3354 74.8257C60.5035 72.3057 58.5634 68.9369 57.8049 65.2229C57.0465 61.5088 57.5106 57.6491 59.1277 54.2206C60.7448 50.7922 63.4282 47.9792 66.7766 46.2023C70.1251 44.4254 73.9587 43.78 77.7043 44.3626C81.45 44.9452 84.9065 46.7244 87.5571 49.4343C90.2076 52.1443 91.9099 55.6393 92.4094 59.397C92.9089 63.1546 92.1787 66.973 90.3281 70.2812Z" fill="#572304"/>
<path d="M117 107.39L111.125 98.2811C106.922 91.7967 102.724 85.3019 98.5312 78.7967C98.8594 78.6717 99.2343 78.5311 99.6093 78.4061C100.456 78.2364 101.261 77.9005 101.977 77.4178C102.693 76.935 103.306 76.315 103.781 75.5936C104.047 74.7778 104.149 73.9177 104.082 73.0625C104.015 72.2073 103.78 71.3736 103.391 70.6092C103.023 69.8095 102.826 68.9422 102.812 68.0623C103.199 67.3102 103.737 66.6455 104.391 66.1092C105.086 65.5825 105.671 64.9234 106.11 64.1698C106.55 63.4163 106.837 62.5832 106.953 61.7186C106.838 60.8556 106.553 60.0241 106.113 59.2729C105.673 58.5217 105.087 57.8658 104.391 57.3436C103.739 56.7987 103.202 56.1294 102.812 55.3748C102.826 54.4949 103.023 53.6276 103.391 52.8279C103.78 52.0662 104.014 51.2352 104.081 50.3825C104.148 49.5298 104.046 48.6723 103.781 47.8592C103.305 47.139 102.691 46.5199 101.976 46.0372C101.26 45.5546 100.456 45.218 99.6093 45.0467C98.7678 44.8338 97.9766 44.4568 97.2812 43.9373C96.9354 43.1422 96.7445 42.2884 96.7187 41.4217C96.7423 40.5606 96.5956 39.7033 96.2873 38.8989C95.979 38.0945 95.515 37.3589 94.9218 36.7342C93.4284 35.855 91.6478 35.6022 89.9687 36.0311C89.1183 36.2066 88.241 36.2066 87.3906 36.0311C86.7361 35.4828 86.1993 34.8078 85.8125 34.0467C85.4571 33.2493 84.9468 32.5306 84.311 31.9324C83.6752 31.3342 82.9268 30.8685 82.1093 30.5623C81.2628 30.4895 80.4102 30.5846 79.6005 30.842C78.7907 31.0994 78.0397 31.5141 77.3906 32.0623C76.6809 32.6032 75.8669 32.9916 75 33.2029C74.133 32.9916 73.3191 32.6032 72.6093 32.0623C71.9626 31.5153 71.2142 31.1012 70.4072 30.8438C69.6002 30.5864 68.7503 30.4908 67.9062 30.5623C67.0853 30.8658 66.3335 31.3304 65.6948 31.9288C65.0562 32.5272 64.5437 33.2473 64.1875 34.0467C63.8 34.8031 63.2694 35.477 62.625 36.0311C61.7693 36.2063 60.8869 36.2063 60.0312 36.0311C58.3572 35.602 56.5814 35.8549 55.0937 36.7342C54.494 37.3582 54.0248 38.0955 53.7135 38.9031C53.4023 39.7107 53.2553 40.5722 53.2812 41.4373C53.2653 42.3019 53.0683 43.1535 52.7031 43.9373C52.0219 44.4577 51.2396 44.8302 50.4062 45.0311C48.6932 45.3774 47.1873 46.3888 46.2187 47.8436C45.9532 48.6593 45.8511 49.5194 45.9181 50.3746C45.9851 51.2299 46.22 52.0635 46.6093 52.8279C46.9766 53.6276 47.1735 54.4949 47.1875 55.3748C46.7975 56.1294 46.261 56.7987 45.6093 57.3436C44.9128 57.8658 44.3274 58.5217 43.8874 59.2729C43.4474 60.0241 43.1616 60.8556 43.0468 61.7186C43.1634 62.5832 43.4497 63.4163 43.8895 64.1698C44.3293 64.9234 44.9138 65.5825 45.6093 66.1092C46.2633 66.6455 46.8004 67.3102 47.1875 68.0623C47.1735 68.9422 46.9766 69.8095 46.6093 70.6092C46.2203 71.3709 45.9855 72.2019 45.9185 73.0546C45.8514 73.9073 45.9535 74.7648 46.2187 75.5779C46.6911 76.3015 47.3036 76.9231 48.0202 77.4062C48.7367 77.8892 49.5427 78.2239 50.3906 78.3904C50.75 78.5311 51.125 78.6561 51.4687 78.7967C47.2656 85.2967 43.0677 91.7915 38.875 98.2811L33 107.39C32.8305 107.646 32.7414 107.946 32.7442 108.252C32.747 108.559 32.8415 108.857 33.0156 109.109C33.1854 109.361 33.4254 109.558 33.706 109.674C33.9866 109.791 34.2953 109.823 34.5937 109.765L45.2656 107.781L47.8593 118.344C47.9347 118.639 48.0946 118.905 48.3194 119.111C48.5443 119.316 48.8243 119.451 49.125 119.5C49.2072 119.518 49.2909 119.528 49.375 119.531C49.6368 119.533 49.8948 119.468 50.1245 119.342C50.3541 119.216 50.5479 119.034 50.6875 118.812L67.5312 92.7342C67.6562 92.7654 67.7656 92.8435 67.8906 92.8748C68.1466 92.9358 68.4087 92.9673 68.6718 92.9686C70.1062 92.8104 71.4689 92.2589 72.6093 91.3748C73.3191 90.8339 74.133 90.4455 75 90.2342C75.8669 90.4455 76.6809 90.8339 77.3906 91.3748C78.0402 91.9274 78.7935 92.3447 79.6065 92.6022C80.4195 92.8598 81.2757 92.9525 82.125 92.8748C82.25 92.8435 82.3593 92.7654 82.4687 92.7342L99.3125 118.812C99.452 119.034 99.6458 119.216 99.8755 119.342C100.105 119.468 100.363 119.533 100.625 119.531C100.709 119.528 100.793 119.518 100.875 119.5C101.176 119.451 101.456 119.316 101.681 119.111C101.905 118.905 102.065 118.639 102.141 118.344L104.734 107.781L115.406 109.765C115.705 109.821 116.013 109.789 116.293 109.672C116.573 109.556 116.813 109.36 116.984 109.109C117.158 108.857 117.253 108.559 117.256 108.252C117.259 107.946 117.169 107.646 117 107.39ZM50.0312 114.062L47.9531 105.609C47.8597 105.221 47.6216 104.884 47.2875 104.666C46.9535 104.448 46.5487 104.366 46.1562 104.437L37.5937 106.031L41.5 99.9842C45.4062 93.9217 49.3229 87.8592 53.25 81.7967C53.267 81.8685 53.2774 81.9417 53.2812 82.0154C53.2577 82.8765 53.4043 83.7338 53.7126 84.5382C54.021 85.3426 54.485 86.0782 55.0781 86.7029C56.5718 87.5813 58.3521 87.834 60.0312 87.406C60.8816 87.2305 61.7589 87.2305 62.6093 87.406C63.2675 87.9507 63.805 88.6265 64.1875 89.3904C64.4843 89.8435 64.7812 90.2967 65.0937 90.7342L50.0312 114.062ZM81.875 89.5154C81.7487 89.6587 81.5871 89.7665 81.4062 89.8279C80.9687 89.9217 79.8125 89.2186 79.0625 88.7342C77.8877 87.8219 76.4798 87.2588 75 87.1092C73.5201 87.2588 72.1123 87.8219 70.9375 88.7342C70.1875 89.2186 69.0312 89.9373 68.6093 89.8436C68.4178 89.7702 68.2464 89.6524 68.1093 89.4998C67.6254 88.9583 67.2011 88.3664 66.8437 87.7342C66.1972 86.4445 65.2079 85.3579 63.9843 84.5936C63.2741 84.2702 62.4987 84.1151 61.7187 84.1404C61.0392 84.1536 60.361 84.2058 59.6875 84.2967C58.7187 84.4061 57.4062 84.5623 57.0312 84.2654C56.6562 83.9686 56.5 82.6404 56.3906 81.6717C56.3716 80.2085 55.944 78.7798 55.1562 77.5467C55.0319 77.3907 54.8904 77.2491 54.7343 77.1248C54.6747 77.0742 54.6121 77.0273 54.5468 76.9842L54.5312 76.9686H54.5156C53.5815 76.2854 52.5342 75.7724 51.4218 75.4529C50.5 75.1248 49.25 74.6873 49.0312 74.2186C48.8125 73.7811 49.25 72.5467 49.5625 71.6404C50.1884 70.3116 50.4215 68.8317 50.2343 67.3748C49.7755 66.0063 48.9352 64.7974 47.8125 63.8904C47.125 63.2029 46.1718 62.2498 46.1718 61.7186C46.1718 61.1873 47.125 60.2342 47.8125 59.5467C48.9352 58.6397 49.7755 57.4308 50.2343 56.0623C50.4215 54.6055 50.1884 53.1255 49.5625 51.7967C49.25 50.8904 48.8125 49.6561 49.0312 49.2029C49.25 48.7498 50.5156 48.3123 51.4375 47.9842C52.846 47.653 54.1307 46.9266 55.1406 45.8904C55.94 44.6676 56.3737 43.2419 56.3906 41.7811C56.5 40.8123 56.6406 39.4998 57.0312 39.1873C57.4218 38.8748 58.7187 39.0311 59.6875 39.1404C61.1193 39.4455 62.608 39.3426 63.9843 38.8436C65.2116 38.0836 66.2019 36.9958 66.8437 35.7029C67.3593 34.8592 68.0781 33.7186 68.5937 33.6092C69.0312 33.4998 70.1875 34.2342 70.9375 34.7029C72.1123 35.6152 73.5201 36.1783 75 36.3279C76.4798 36.1783 77.8877 35.6152 79.0625 34.7029C79.8125 34.2342 80.9531 33.5154 81.4062 33.6092C81.9218 33.7186 82.6406 34.8592 83.1562 35.7029C83.798 36.9958 84.7884 38.0836 86.0156 38.8436C87.3919 39.3426 88.8806 39.4455 90.3125 39.1404C91.2812 39.0311 92.5937 38.8748 92.9687 39.1717C93.3437 39.4686 93.5 40.7967 93.6093 41.7654C93.6284 43.2286 94.0559 44.6573 94.8437 45.8904C95.8686 46.9266 97.1616 47.657 98.5781 47.9998C99.5 48.3123 100.75 48.7498 100.969 49.2186C101.187 49.6561 100.75 50.8904 100.437 51.7967C99.8116 53.1255 99.5785 54.6055 99.7656 56.0623C100.224 57.4308 101.065 58.6397 102.187 59.5467C102.875 60.2342 103.828 61.1873 103.828 61.7186C103.828 62.2498 102.875 63.2029 102.187 63.8904C101.065 64.7974 100.224 66.0063 99.7656 67.3748C99.5785 68.8317 99.8116 70.3116 100.437 71.6404C100.75 72.5467 101.187 73.7811 100.969 74.2342C100.75 74.6873 99.4843 75.1404 98.5781 75.4529C97.408 75.7726 96.3101 76.3136 95.3437 77.0467C95.1705 77.2015 95.0086 77.3686 94.8593 77.5467C94.0599 78.7695 93.6262 80.1952 93.6093 81.656C93.5 82.6248 93.3593 83.9373 92.9687 84.2498C92.5781 84.5623 91.2812 84.4061 90.3125 84.2967C88.8812 83.9838 87.3903 84.0868 86.0156 84.5936C84.7921 85.3579 83.8028 86.4445 83.1562 87.7342C82.7951 88.3727 82.3655 88.97 81.875 89.5154ZM103.844 104.437C103.451 104.366 103.046 104.448 102.712 104.666C102.378 104.884 102.14 105.221 102.047 105.609L99.9687 114.062L84.9062 90.7342C85.2187 90.2967 85.5156 89.8435 85.8125 89.3904C86.1954 88.6311 86.7267 87.9564 87.375 87.406C88.2307 87.2308 89.113 87.2308 89.9687 87.406C91.6427 87.8351 93.4185 87.5822 94.9062 86.7029C95.5046 86.0812 95.973 85.3464 96.2842 84.5416C96.5954 83.7368 96.7431 82.878 96.7187 82.0154C96.7215 81.9416 96.7319 81.8683 96.75 81.7967C100.672 87.8592 104.589 93.9217 108.5 99.9842L112.406 106.031L103.844 104.437Z" fill="#572304"/>
</svg>
