<svg width="150" height="150" viewBox="0 0 150 150" fill="none" xmlns="http://www.w3.org/2000/svg">
<circle cx="75" cy="75" r="73.5" stroke="#572304" stroke-width="3"/>
<path d="M116.643 109.273L114.303 69.8514C114.286 69.5585 114.157 69.2831 113.944 69.0819C113.73 68.8807 113.448 68.7689 113.154 68.7694H105.051V66.7479C105.052 64.44 104.313 62.1926 102.943 60.3354C101.573 58.4783 99.6438 57.1093 97.4384 56.4295C95.2329 55.7498 92.8676 55.7949 90.6897 56.5585C88.5118 57.322 86.6361 58.7636 85.3379 60.6717L84.8613 52.2244C84.8445 51.9323 84.7169 51.6576 84.5046 51.4563C84.2924 51.2549 84.0114 51.142 83.7188 51.1405H72.1328V47.9237C72.155 46.0165 71.7986 44.1239 71.0841 42.3556C70.3696 40.5872 69.3114 38.9782 67.9706 37.6217C66.6298 36.2652 65.0332 35.1883 63.2733 34.4533C61.5133 33.7183 59.625 33.3398 57.7178 33.3398C55.8105 33.3398 53.9222 33.7183 52.1623 34.4533C50.4023 35.1883 48.8057 36.2652 47.465 37.6217C46.1242 38.9782 45.0659 40.5872 44.3515 42.3556C43.637 44.1239 43.2806 46.0165 43.3028 47.9237V51.1405H31.7266C31.4327 51.1405 31.1499 51.253 30.9363 51.455C30.7228 51.6569 30.5946 51.9329 30.5781 52.2264L27.3574 109.275C27.3478 109.432 27.3704 109.589 27.4238 109.736C27.4772 109.884 27.5603 110.019 27.6679 110.133C27.7755 110.247 27.9054 110.338 28.0495 110.4C28.1936 110.462 28.349 110.494 28.5059 110.494H115.494C115.651 110.493 115.806 110.46 115.95 110.398C116.093 110.335 116.223 110.244 116.33 110.13C116.438 110.016 116.521 109.881 116.574 109.734C116.628 109.586 116.651 109.43 116.643 109.273ZM85.7637 66.7479C85.7637 64.4946 86.6588 62.3336 88.2521 60.7402C89.8455 59.1469 92.0065 58.2518 94.2598 58.2518C96.5131 58.2518 98.6741 59.1469 100.267 60.7402C101.861 62.3336 102.756 64.4946 102.756 66.7479V68.7733H85.8028L85.7715 68.2303L85.7637 66.7479ZM45.6055 47.9237C45.6055 44.712 46.8813 41.632 49.1522 39.361C51.4232 37.0901 54.5033 35.8143 57.7149 35.8143C60.9265 35.8143 64.0065 37.0901 66.2775 39.361C68.5484 41.632 69.8242 44.712 69.8242 47.9237V51.1405H45.6055V47.9237ZM73.0176 108.189H29.7227L32.8145 53.4451H82.6192L83.4571 68.2733V69.9237C83.4573 70.1019 83.4987 70.2777 83.5781 70.4373L85.709 108.189H73.0176ZM88.0176 108.189L85.9238 71.0799H112.068L114.273 108.189H88.0176Z" fill="#572304"/>
<path d="M53.8828 95.746H44.1172C43.918 95.7444 43.7227 95.6906 43.5508 95.5899C43.3789 95.4893 43.2364 95.3453 43.1375 95.1723C43.0387 94.9993 42.987 94.8034 42.9875 94.6042C42.988 94.405 43.0408 94.2094 43.1406 94.037L46.627 87.996L47 89.3827C47.0657 89.6278 47.2104 89.8445 47.4116 89.9992C47.6129 90.1538 47.8595 90.2378 48.1133 90.2382C48.2136 90.2385 48.3134 90.2254 48.4102 90.1991C48.705 90.1199 48.9564 89.9269 49.1091 89.6625C49.2618 89.3981 49.3034 89.0839 49.2246 88.7889L48.1524 84.789C48.1217 84.6262 48.0561 84.472 47.96 84.3371C47.8639 84.2022 47.7396 84.0898 47.5957 84.0077L47.4942 83.9569C47.2501 83.8414 46.9722 83.8191 46.7129 83.8944L42.6309 84.9882C42.3476 85.0765 42.1094 85.2706 41.9657 85.5301C41.822 85.7897 41.7839 86.0947 41.8594 86.3816C41.9349 86.6685 42.1182 86.9152 42.371 87.0704C42.6238 87.2256 42.9268 87.2773 43.2168 87.2147L44.6172 86.8378L41.1406 92.8847C40.8389 93.4081 40.6801 94.0017 40.6802 94.6059C40.6803 95.2102 40.8393 95.8037 41.1412 96.3271C41.4432 96.8505 41.8774 97.2852 42.4005 97.5877C42.9235 97.8902 43.5169 98.0499 44.1211 98.0507H53.8867C54.1923 98.0507 54.4855 97.9293 54.7016 97.7132C54.9177 97.497 55.0391 97.2039 55.0391 96.8983C55.0391 96.5927 54.9177 96.2996 54.7016 96.0835C54.4855 95.8674 54.1923 95.746 53.8867 95.746H53.8828Z" fill="#572304"/>
<path d="M69.416 84.4317C69.26 84.1705 69.0085 83.9802 68.7147 83.9011C68.4209 83.822 68.1079 83.8603 67.8418 84.0078C67.5771 84.1607 67.3839 84.4122 67.3045 84.7073C67.225 85.0024 67.2658 85.317 67.418 85.582L72.3008 94.0371C72.401 94.2103 72.4538 94.4067 72.4539 94.6068C72.454 94.8068 72.4014 95.0034 72.3014 95.1766C72.2014 95.3499 72.0576 95.4937 71.8843 95.5937C71.711 95.6937 71.5145 95.7462 71.3145 95.7461H64.334L65.3555 94.7266C65.5717 94.5111 65.6935 94.2185 65.6941 93.9132C65.6946 93.6079 65.5739 93.3149 65.3584 93.0986C65.1429 92.8824 64.8503 92.7606 64.545 92.76C64.2397 92.7595 63.9467 92.8802 63.7305 93.0957L60.7402 96.082C60.5521 96.2698 60.4348 96.5168 60.4082 96.7813C60.4004 96.8579 60.4004 96.9351 60.4082 97.0117C60.4348 97.2762 60.5521 97.5232 60.7402 97.711L63.7305 100.711C63.948 100.927 64.2425 101.048 64.5491 101.047C64.8556 101.045 65.1492 100.923 65.3652 100.705C65.5812 100.488 65.702 100.193 65.7009 99.8865C65.6998 99.5799 65.5769 99.2863 65.3594 99.0703L64.3379 98.0508H71.3184C71.9227 98.0501 72.5162 97.8906 73.0394 97.5882C73.5626 97.2858 73.9972 96.8512 74.2995 96.3279C74.6018 95.8047 74.7612 95.2111 74.7618 94.6068C74.7623 94.0025 74.604 93.4086 74.3027 92.8848L69.416 84.4317Z" fill="#572304"/>
<path d="M64.3203 79.1445C64.3437 79.1445 64.3672 79.1445 64.3926 79.1445C64.5862 79.1415 64.7762 79.0905 64.9453 78.9961C65.1266 78.8931 65.2767 78.7432 65.3798 78.562C65.4829 78.3808 65.5352 78.1752 65.5312 77.9668L66.5312 74.207C66.5725 74.0601 66.5841 73.9064 66.5654 73.7549C66.5466 73.6034 66.4979 73.4572 66.4221 73.3247C66.3463 73.1922 66.2449 73.0761 66.1238 72.9833C66.0027 72.8904 65.8643 72.8225 65.7167 72.7836C65.5691 72.7447 65.4152 72.7356 65.264 72.7568C65.1129 72.778 64.9674 72.829 64.8362 72.907C64.705 72.9849 64.5906 73.0882 64.4996 73.2108C64.4087 73.3334 64.3431 73.4729 64.3066 73.6211L63.9472 74.9609L60.7051 69.3438C59.457 67.1953 55.9863 67.1953 54.7402 69.3438L50.0762 77.4238C50.0005 77.5549 49.9514 77.6996 49.9316 77.8496C49.9119 77.9997 49.9219 78.1521 49.961 78.2983C50.0002 78.4445 50.0678 78.5815 50.1599 78.7016C50.2521 78.8217 50.367 78.9224 50.498 78.998C50.6764 79.1 50.8785 79.1532 51.084 79.1523C51.2862 79.1522 51.4849 79.0988 51.66 78.9977C51.8352 78.8966 51.9807 78.7512 52.082 78.5762L56.7461 70.4961C56.8457 70.3229 56.9893 70.179 57.1623 70.0789C57.3353 69.9788 57.5316 69.9261 57.7314 69.9261C57.9313 69.9261 58.1276 69.9788 58.3006 70.0789C58.4736 70.179 58.6171 70.3229 58.7168 70.4961L62.0019 76.1836L60.5488 75.793C60.2588 75.7304 59.9558 75.7821 59.703 75.9373C59.4502 76.0925 59.2669 76.3392 59.1914 76.6261C59.1159 76.913 59.154 77.218 59.2977 77.4776C59.4414 77.7371 59.6796 77.9312 59.9629 78.0195L64.0449 79.1113C64.1351 79.1331 64.2275 79.1442 64.3203 79.1445Z" fill="#572304"/>
</svg>
