<svg width="150" height="150" viewBox="0 0 150 150" fill="none" xmlns="http://www.w3.org/2000/svg">
<circle cx="75" cy="75" r="73.5" stroke="#572304" stroke-width="3"/>
<path d="M98.7031 67.2032C97.6128 66.7516 96.388 66.7507 95.297 67.2006C94.206 67.6506 93.3379 68.5147 92.8828 69.6035L90.3438 75.1465L91.7598 59.7696C91.9766 57.4883 90.4434 55.4317 87.9727 54.9356C87.394 54.8188 86.7979 54.8181 86.2189 54.9336C85.64 55.049 85.0897 55.2783 84.6 55.608C84.1104 55.9378 83.6911 56.3615 83.3665 56.8546C83.0418 57.3477 82.8184 57.9004 82.709 58.4805L80.4199 70.2637L79.5176 53.8086C79.4701 52.6577 78.9785 51.5699 78.1459 50.7737C77.3134 49.9776 76.2047 49.5351 75.0528 49.5391H74.4668C73.3306 49.5405 72.2377 49.975 71.4106 50.7541C70.5836 51.5332 70.0847 52.5983 70.0156 53.7324L69.0391 70.8301L66.211 56.336C66.0125 55.1822 65.3695 54.1524 64.42 53.4676C63.4704 52.7829 62.2902 52.4979 61.1328 52.6739L60.586 52.7617C59.4618 52.9378 58.4474 53.5367 57.7503 54.436C57.0532 55.3354 56.7261 56.4671 56.836 57.5996L59.5039 84.8223C58.3267 83.6378 57.2181 82.3871 56.1836 81.0762C52.1035 75.8242 48.252 73.1719 44.7266 73.1719H44.5879C43.6524 73.1854 42.7315 73.4065 41.8918 73.8193C41.0521 74.232 40.3146 74.8261 39.7324 75.5586C39.6049 75.7357 39.5304 75.9455 39.5176 76.1634C39.5048 76.3812 39.5543 76.5983 39.6602 76.7891L58.1856 110.064V116.42C58.1978 116.717 58.3245 116.998 58.539 117.204C58.7536 117.41 59.0395 117.525 59.3369 117.525C59.6343 117.525 59.9202 117.41 60.1348 117.204C60.3494 116.998 60.4761 116.717 60.4883 116.42V109.756C60.4874 109.56 60.4384 109.368 60.3457 109.195L42.0957 76.4063C42.8114 75.8148 43.7065 75.4836 44.6348 75.4668C46.666 75.4532 49.7988 76.6172 54.3516 82.4864C55.6669 84.1416 57.0837 85.7136 58.5938 87.1934L60.1348 88.7325C60.3153 88.9131 60.5512 89.028 60.8047 89.0586C61.2871 89.1192 72.6211 90.7129 72.6211 103.924C72.6334 104.221 72.76 104.502 72.9746 104.708C73.1892 104.914 73.4751 105.029 73.7725 105.029C74.0699 105.029 74.3558 104.914 74.5704 104.708C74.785 104.502 74.9116 104.221 74.9239 103.924C74.9239 91.0332 65.0977 87.6895 62.0098 86.9571L59.1192 57.377C59.0652 56.8282 59.2234 56.2796 59.5611 55.8438C59.8989 55.4079 60.3907 55.1179 60.9356 55.0332L61.4824 54.9453C62.0474 54.8656 62.6212 55.0093 63.0818 55.3459C63.5425 55.6826 63.8536 56.1856 63.9492 56.7481L68.5547 80.2578C68.6014 80.5366 68.7522 80.7873 68.9766 80.9592C69.201 81.131 69.4824 81.2113 69.7637 81.1836C70.0434 81.165 70.3067 81.0447 70.5038 80.8454C70.701 80.646 70.8184 80.3815 70.834 80.1016L72.3164 53.8594C72.3506 53.3122 72.5916 52.7984 72.9906 52.4223C73.3895 52.0462 73.9166 51.8359 74.4649 51.834H75.0508C75.6107 51.8342 76.1487 52.0518 76.5514 52.4409C76.954 52.8301 77.1898 53.3603 77.209 53.9199L78.625 79.6699C78.6391 79.9511 78.7558 80.2174 78.9531 80.4183C79.1503 80.6192 79.4144 80.7408 79.6953 80.7601C79.9762 80.7793 80.2544 80.6949 80.4772 80.5228C80.7 80.3507 80.852 80.1028 80.9043 79.8262L84.961 58.9141C85.0126 58.6329 85.12 58.365 85.277 58.1261C85.4341 57.8873 85.6374 57.6823 85.875 57.5235C86.3574 57.1992 86.9395 57.0821 87.7344 57.2403C88.2587 57.3431 88.7258 57.6376 89.0447 58.0662C89.3635 58.4949 89.5113 59.0269 89.459 59.5586L87.4219 81.6485C87.3981 81.9186 87.4703 82.1886 87.6258 82.4107C87.7814 82.6329 88.0103 82.7931 88.2724 82.8631C88.5344 82.9331 88.8127 82.9084 89.0584 82.7934C89.304 82.6784 89.5012 82.4805 89.6153 82.2344L94.9922 70.5156C95.1906 70.027 95.5607 69.6276 96.033 69.3928C96.5053 69.158 97.0471 69.104 97.5564 69.2408C98.0658 69.3776 98.5076 69.6959 98.7986 70.1357C99.0897 70.5756 99.2099 71.1066 99.1367 71.6289L94.0742 88.7364L93.5547 91.4375C92.1446 98.9024 91.211 103.836 87.3731 111.084L86.4375 112.859C86.3502 113.025 86.3046 113.209 86.3047 113.397V116.412C86.317 116.709 86.4436 116.99 86.6582 117.196C86.8728 117.402 87.1587 117.517 87.4561 117.517C87.7535 117.517 88.0394 117.402 88.254 117.196C88.4685 116.99 88.5952 116.709 88.6075 116.412V113.678L89.4082 112.154C93.4063 104.6 94.3672 99.5352 95.8242 91.8633L96.3125 89.2774L101.367 72.1739C101.561 71.1655 101.401 70.1212 100.916 69.2162C100.431 68.3113 99.6499 67.6005 98.7031 67.2032Z" fill="#572304"/>
<path d="M89.5293 51.8318C89.6426 51.8318 89.7637 51.8318 89.8887 51.8318C92.3457 51.8318 96.8281 50.6599 98.3672 46.1092C100.25 40.5408 98.0645 34.9041 97.9766 34.6678C97.868 34.3962 97.6605 34.1759 97.3959 34.0512C97.1313 33.9266 96.8294 33.9068 96.5508 33.9959C96.3067 34.074 90.5762 35.9959 87.4922 41.0017C84.8379 45.3123 87.1504 49.7244 88.7442 51.4549C88.9477 51.6767 89.2289 51.8117 89.5293 51.8318ZM89.4531 42.2127C91.3457 39.1424 94.5313 37.3826 96.1895 36.6287C96.6699 38.3865 97.3496 41.9431 96.1895 45.3767C94.9844 48.949 91.4453 49.4588 90.1348 49.5252C89.3399 48.4763 87.4688 45.4256 89.4531 42.2127Z" fill="#572304"/>
<path d="M112.031 51.7871C111.963 51.1816 111.383 50.6621 110.826 50.7695C110.631 50.7695 105.854 51.0801 102.473 54.2734C99.5098 57.0742 100.387 60.9844 101.264 62.6621C101.403 62.9297 101.642 63.1312 101.93 63.2227C102.676 63.452 103.453 63.5659 104.234 63.5605C106.139 63.5605 108.465 62.9102 109.994 60.6133C112.57 56.7383 112.055 51.9883 112.031 51.7871ZM108.076 59.3359C106.615 61.5332 104.156 61.3457 103.111 61.1445C102.74 60.1543 102.135 57.7617 104.057 55.9473C105.904 54.2012 108.354 53.502 109.785 53.2324C109.766 54.6816 109.49 57.209 108.076 59.3359Z" fill="#572304"/>
<path d="M74.5664 45.867C74.7048 45.9231 74.8526 45.9523 75.002 45.953C75.1507 45.9528 75.298 45.9236 75.4356 45.867C77.6133 44.9764 81.582 41.9608 81.0117 36.9373C80.3457 31.0955 75.9766 26.9237 75.791 26.7479C75.5767 26.5484 75.2948 26.4375 75.002 26.4375C74.7092 26.4375 74.4272 26.5484 74.2129 26.7479C74.0273 26.9237 69.6543 31.0955 68.9883 36.9373C68.418 41.9647 72.3867 44.9764 74.5664 45.867ZM71.2891 37.1971C71.6797 33.6131 73.8281 30.6678 75 29.2791C76.1816 30.6619 78.3106 33.5975 78.7109 37.1971C79.1367 40.9451 76.1484 42.91 75 43.5252C73.8418 42.91 70.8535 40.9451 71.2891 37.1971Z" fill="#572304"/>
<path d="M60.1113 51.838C60.2363 51.838 60.3574 51.838 60.4707 51.838C60.7689 51.8185 61.0484 51.6857 61.252 51.4669C62.8457 49.7365 65.1582 45.3244 62.5039 41.0138C59.4199 36.008 53.6895 34.0861 53.4473 34.008C53.1684 33.9221 52.8674 33.9433 52.6034 34.0676C52.3393 34.1919 52.1311 34.4102 52.0195 34.6798C51.9258 34.9162 49.7402 40.5529 51.6289 46.1212C53.1719 50.674 57.6582 51.838 60.1113 51.838ZM53.8184 36.6291C55.4688 37.3771 58.6504 39.131 60.5469 42.213C62.5215 45.4259 60.6563 48.4728 59.8692 49.5236C58.5664 49.4513 55.0098 48.9377 53.8145 45.3771C52.6582 41.9591 53.3399 38.3869 53.8184 36.6291Z" fill="#572304"/>
<path d="M45.7656 63.5607C46.5466 63.566 47.3238 63.4521 48.0703 63.2228C48.3577 63.1313 48.5971 62.9298 48.7363 62.6622C49.6133 60.9845 50.4941 57.0743 47.5273 54.2736C44.1406 51.0802 39.375 50.7794 39.1738 50.7697C38.5332 50.6661 38.0371 51.1818 37.9687 51.7872C37.9453 51.9825 37.4297 56.7384 40.0058 60.6134C41.5351 62.9103 43.8613 63.5607 45.7656 63.5607ZM45.9433 55.9435C47.8633 57.7579 47.2597 60.1505 46.8887 61.1407C45.8555 61.3361 43.3848 61.5314 41.9238 59.3322C40.5156 57.2169 40.2441 54.6798 40.2187 53.2247C41.6426 53.4962 44.0859 54.1915 45.9433 55.9474V55.9435Z" fill="#572304"/>
</svg>
