<svg xmlns="http://www.w3.org/2000/svg" xmlns:xlink="http://www.w3.org/1999/xlink" width="1080" zoomAndPan="magnify" viewBox="0 0 810 809.999993" height="1080" preserveAspectRatio="xMidYMid meet" version="1.0"><defs><filter x="0%" y="0%" width="100%" height="100%" id="324393f223"><feColorMatrix values="0 0 0 0 1 0 0 0 0 1 0 0 0 0 1 0 0 0 1 0" color-interpolation-filters="sRGB"/></filter><g/><mask id="10bc25b850"><g filter="url(#324393f223)"><rect x="-81" width="972" fill="#000000" y="-80.999999" height="971.999992" fill-opacity="0.66"/></g></mask><clipPath id="c9999b7f40"><path d="M 0.5 0.5 L 243.5 0.5 L 243.5 243.5 L 0.5 243.5 Z M 0.5 0.5 " clip-rule="nonzero"/></clipPath><clipPath id="eca9d4d9cb"><path d="M 122 0.5 C 54.898438 0.5 0.5 54.898438 0.5 122 C 0.5 189.101562 54.898438 243.5 122 243.5 C 189.101562 243.5 243.5 189.101562 243.5 122 C 243.5 54.898438 189.101562 0.5 122 0.5 Z M 122 0.5 " clip-rule="nonzero"/></clipPath><clipPath id="264d681886"><rect x="0" width="244" y="0" height="244"/></clipPath></defs><g mask="url(#10bc25b850)"><g transform="matrix(1, 0, 0, 1, 283, 283)"><g clip-path="url(#264d681886)"><g clip-path="url(#c9999b7f40)"><g clip-path="url(#eca9d4d9cb)"><path fill="#000000" d="M 0.5 0.5 L 243.5 0.5 L 243.5 243.5 L 0.5 243.5 Z M 0.5 0.5 " fill-opacity="1" fill-rule="nonzero"/></g></g><g fill="#ffffff" fill-opacity="1"><g transform="translate(86.522641, 89.000001)"><g><path d="M 15.6875 -28.15625 C 19.894531 -28.15625 23.21875 -26.851562 25.65625 -24.25 C 28.09375 -21.65625 29.3125 -18.171875 29.3125 -13.796875 C 29.3125 -9.453125 28.09375 -5.972656 25.65625 -3.359375 C 23.21875 -0.742188 19.890625 0.5625 15.671875 0.5625 C 11.460938 0.5625 8.140625 -0.742188 5.703125 -3.359375 C 3.265625 -5.972656 2.046875 -9.453125 2.046875 -13.796875 C 2.046875 -18.171875 3.253906 -21.65625 5.671875 -24.25 C 8.097656 -26.851562 11.4375 -28.15625 15.6875 -28.15625 Z M 9.890625 -6.25 C 11.296875 -4.457031 13.222656 -3.5625 15.671875 -3.5625 C 18.128906 -3.5625 20.050781 -4.46875 21.4375 -6.28125 C 22.820312 -8.09375 23.515625 -10.597656 23.515625 -13.796875 C 23.515625 -17.023438 22.820312 -19.539062 21.4375 -21.34375 C 20.050781 -23.144531 18.132812 -24.046875 15.6875 -24.046875 C 13.195312 -24.046875 11.257812 -23.144531 9.875 -21.34375 C 8.488281 -19.539062 7.796875 -17.023438 7.796875 -13.796875 C 7.796875 -10.566406 8.492188 -8.050781 9.890625 -6.25 Z M 9.890625 -6.25 "/></g></g></g><g fill="#ffffff" fill-opacity="1"><g transform="translate(117.719597, 89.000001)"><g><path d="M 22.15625 -21.28125 L 22.15625 0 L 16.640625 0 L 16.640625 -3.59375 L 15 -0.875 C 13.5625 0.0820312 11.851562 0.5625 9.875 0.5625 C 7.769531 0.5625 6.054688 0.0507812 4.734375 -0.96875 C 3.421875 -2 2.628906 -3.289062 2.359375 -4.84375 C 2.222656 -5.75 2.15625 -7.039062 2.15625 -8.71875 L 2.15625 -21.28125 L 7.6875 -21.28125 L 7.6875 -9.875 C 7.6875 -8.894531 7.738281 -7.921875 7.84375 -6.953125 C 8.132812 -4.554688 9.503906 -3.359375 11.953125 -3.359375 C 13.398438 -3.359375 14.539062 -3.957031 15.375 -5.15625 C 16.21875 -6.351562 16.640625 -8.113281 16.640625 -10.4375 L 16.640625 -21.28125 Z M 22.15625 -21.28125 "/></g></g></g><g fill="#ffffff" fill-opacity="1"><g transform="translate(143.037139, 89.000001)"><g><path d="M 9.125 -17.484375 L 9.125 -7.640625 C 9.125 -6.753906 9.132812 -6.128906 9.15625 -5.765625 C 9.238281 -4.722656 9.546875 -4.046875 10.078125 -3.734375 C 10.609375 -3.429688 11.632812 -3.332031 13.15625 -3.4375 L 13.15625 0.15625 C 12.007812 0.34375 10.796875 0.4375 9.515625 0.4375 C 7.492188 0.4375 6.046875 0.0976562 5.171875 -0.578125 C 4.304688 -1.253906 3.8125 -2.367188 3.6875 -3.921875 C 3.625 -4.554688 3.59375 -5.582031 3.59375 -7 L 3.59375 -17.484375 L 0.484375 -17.484375 L 0.484375 -21.125 L 3.59375 -21.125 L 3.59375 -26.359375 L 9.125 -26.359375 L 9.125 -21.125 L 13.515625 -21.125 L 13.515625 -17.484375 Z M 9.125 -17.484375 "/></g></g></g><g fill="#ffffff" fill-opacity="1"><g transform="translate(102.811703, 136.249999)"><g><path d="M 4 -18.734375 C 5.945312 -20.804688 8.648438 -21.84375 12.109375 -21.84375 C 15.578125 -21.84375 18.285156 -20.804688 20.234375 -18.734375 C 22.179688 -16.671875 23.15625 -13.972656 23.15625 -10.640625 C 23.15625 -7.335938 22.179688 -4.644531 20.234375 -2.5625 C 18.285156 -0.476562 15.578125 0.5625 12.109375 0.5625 C 8.648438 0.5625 5.945312 -0.476562 4 -2.5625 C 2.050781 -4.644531 1.078125 -7.335938 1.078125 -10.640625 C 1.078125 -13.972656 2.050781 -16.671875 4 -18.734375 Z M 8.21875 -5.25 C 9.164062 -3.957031 10.460938 -3.3125 12.109375 -3.3125 C 13.765625 -3.3125 15.066406 -3.957031 16.015625 -5.25 C 16.960938 -6.550781 17.4375 -8.347656 17.4375 -10.640625 C 17.4375 -12.929688 16.960938 -14.722656 16.015625 -16.015625 C 15.066406 -17.304688 13.765625 -17.953125 12.109375 -17.953125 C 10.460938 -17.953125 9.164062 -17.304688 8.21875 -16.015625 C 7.269531 -14.722656 6.796875 -12.929688 6.796875 -10.640625 C 6.796875 -8.347656 7.269531 -6.550781 8.21875 -5.25 Z M 8.21875 -5.25 "/></g></g></g><g fill="#ffffff" fill-opacity="1"><g transform="translate(127.649292, 136.249999)"><g><path d="M 8.6875 -24 C 8.625 -23.625 8.59375 -23.007812 8.59375 -22.15625 L 8.59375 -21.125 L 12.953125 -21.125 L 12.953125 -17.484375 L 8.59375 -17.484375 L 8.59375 0 L 3.078125 0 L 3.078125 -17.484375 L 0.796875 -17.484375 L 0.796875 -21.125 L 3.078125 -21.125 L 3.078125 -22 C 3.078125 -23.144531 3.101562 -23.957031 3.15625 -24.4375 C 3.507812 -28.25 6.082031 -30.15625 10.875 -30.15625 C 11.675781 -30.15625 12.488281 -30.0625 13.3125 -29.875 L 13.3125 -26.046875 C 12.007812 -26.285156 10.9375 -26.222656 10.09375 -25.859375 C 9.257812 -25.492188 8.789062 -24.875 8.6875 -24 Z M 8.6875 -24 "/></g></g></g><g fill="#ffffff" fill-opacity="1"><g transform="translate(66.424986, 183.499997)"><g><path d="M 12.71875 -28.15625 C 15.863281 -28.15625 18.269531 -27.367188 19.9375 -25.796875 C 21.601562 -24.222656 22.597656 -22.117188 22.921875 -19.484375 L 17.28125 -19.484375 C 17.125 -20.921875 16.644531 -22.039062 15.84375 -22.84375 C 15.039062 -23.644531 13.929688 -24.046875 12.515625 -24.046875 C 11.367188 -24.046875 10.4375 -23.765625 9.71875 -23.203125 C 9 -22.640625 8.640625 -21.828125 8.640625 -20.765625 C 8.640625 -19.585938 9.070312 -18.664062 9.9375 -18 C 10.800781 -17.332031 12.328125 -16.742188 14.515625 -16.234375 C 17.535156 -15.546875 19.753906 -14.492188 21.171875 -13.078125 C 22.597656 -11.660156 23.3125 -9.832031 23.3125 -7.59375 C 23.3125 -5.09375 22.328125 -3.109375 20.359375 -1.640625 C 18.390625 -0.171875 15.976562 0.5625 13.125 0.5625 C 9.757812 0.5625 7.078125 -0.175781 5.078125 -1.65625 C 3.078125 -3.132812 1.945312 -5.300781 1.6875 -8.15625 L 7.3125 -8.15625 C 7.613281 -6.6875 8.28125 -5.550781 9.3125 -4.75 C 10.351562 -3.957031 11.597656 -3.5625 13.046875 -3.5625 C 14.316406 -3.5625 15.382812 -3.878906 16.25 -4.515625 C 17.125 -5.160156 17.5625 -6.003906 17.5625 -7.046875 C 17.5625 -8.210938 17.140625 -9.15625 16.296875 -9.875 C 15.460938 -10.59375 14.046875 -11.195312 12.046875 -11.6875 C 8.953125 -12.425781 6.644531 -13.414062 5.125 -14.65625 C 3.601562 -15.894531 2.84375 -17.703125 2.84375 -20.078125 C 2.84375 -22.535156 3.800781 -24.492188 5.71875 -25.953125 C 7.632812 -27.421875 9.96875 -28.15625 12.71875 -28.15625 Z M 12.71875 -28.15625 "/></g></g></g><g fill="#ffffff" fill-opacity="1"><g transform="translate(91.342569, 183.499997)"><g><path d="M 9.125 -17.484375 L 9.125 -7.640625 C 9.125 -6.753906 9.132812 -6.128906 9.15625 -5.765625 C 9.238281 -4.722656 9.546875 -4.046875 10.078125 -3.734375 C 10.609375 -3.429688 11.632812 -3.332031 13.15625 -3.4375 L 13.15625 0.15625 C 12.007812 0.34375 10.796875 0.4375 9.515625 0.4375 C 7.492188 0.4375 6.046875 0.0976562 5.171875 -0.578125 C 4.304688 -1.253906 3.8125 -2.367188 3.6875 -3.921875 C 3.625 -4.554688 3.59375 -5.582031 3.59375 -7 L 3.59375 -17.484375 L 0.484375 -17.484375 L 0.484375 -21.125 L 3.59375 -21.125 L 3.59375 -26.359375 L 9.125 -26.359375 L 9.125 -21.125 L 13.515625 -21.125 L 13.515625 -17.484375 Z M 9.125 -17.484375 "/></g></g></g><g fill="#ffffff" fill-opacity="1"><g transform="translate(106.381132, 183.499997)"><g><path d="M 4 -18.734375 C 5.945312 -20.804688 8.648438 -21.84375 12.109375 -21.84375 C 15.578125 -21.84375 18.285156 -20.804688 20.234375 -18.734375 C 22.179688 -16.671875 23.15625 -13.972656 23.15625 -10.640625 C 23.15625 -7.335938 22.179688 -4.644531 20.234375 -2.5625 C 18.285156 -0.476562 15.578125 0.5625 12.109375 0.5625 C 8.648438 0.5625 5.945312 -0.476562 4 -2.5625 C 2.050781 -4.644531 1.078125 -7.335938 1.078125 -10.640625 C 1.078125 -13.972656 2.050781 -16.671875 4 -18.734375 Z M 8.21875 -5.25 C 9.164062 -3.957031 10.460938 -3.3125 12.109375 -3.3125 C 13.765625 -3.3125 15.066406 -3.957031 16.015625 -5.25 C 16.960938 -6.550781 17.4375 -8.347656 17.4375 -10.640625 C 17.4375 -12.929688 16.960938 -14.722656 16.015625 -16.015625 C 15.066406 -17.304688 13.765625 -17.953125 12.109375 -17.953125 C 10.460938 -17.953125 9.164062 -17.304688 8.21875 -16.015625 C 7.269531 -14.722656 6.796875 -12.929688 6.796875 -10.640625 C 6.796875 -8.347656 7.269531 -6.550781 8.21875 -5.25 Z M 8.21875 -5.25 "/></g></g></g><g fill="#ffffff" fill-opacity="1"><g transform="translate(131.218718, 183.499997)"><g><path d="M 11.71875 -21.84375 C 14.519531 -21.84375 16.785156 -21.070312 18.515625 -19.53125 C 20.253906 -18 21.226562 -16.019531 21.4375 -13.59375 L 16 -13.59375 C 15.519531 -16.5 14.050781 -17.953125 11.59375 -17.953125 C 10.132812 -17.953125 8.96875 -17.351562 8.09375 -16.15625 C 7.226562 -14.957031 6.796875 -13.1875 6.796875 -10.84375 C 6.796875 -8.3125 7.222656 -6.421875 8.078125 -5.171875 C 8.929688 -3.929688 10.09375 -3.3125 11.5625 -3.3125 C 12.65625 -3.3125 13.582031 -3.660156 14.34375 -4.359375 C 15.101562 -5.054688 15.613281 -6.054688 15.875 -7.359375 L 21.40625 -7.359375 C 20.945312 -4.796875 19.816406 -2.832031 18.015625 -1.46875 C 16.210938 -0.113281 13.953125 0.5625 11.234375 0.5625 C 8.222656 0.5625 5.773438 -0.390625 3.890625 -2.296875 C 2.015625 -4.203125 1.078125 -6.929688 1.078125 -10.484375 C 1.078125 -14.003906 2.085938 -16.773438 4.109375 -18.796875 C 6.140625 -20.828125 8.675781 -21.84375 11.71875 -21.84375 Z M 11.71875 -21.84375 "/></g></g></g><g fill="#ffffff" fill-opacity="1"><g transform="translate(154.256486, 183.499997)"><g><path d="M 9.796875 -8.40625 L 8.046875 -6.484375 L 8.046875 0 L 2.515625 0 L 2.515625 -29.40625 L 8.046875 -29.40625 L 8.046875 -11.5625 L 16.59375 -21.28125 L 23.234375 -21.28125 L 13.796875 -11.40625 L 23.359375 0 L 16.40625 0 Z M 9.796875 -8.40625 "/></g></g></g></g></g></g></svg>