<?xml version="1.0" encoding="UTF-8"?>
<svg id="Layer_1" data-name="Layer 1" xmlns="http://www.w3.org/2000/svg" viewBox="0 0 188.26 60.52">
  <defs>
    <style>
      .cls-1 {
        fill: #463b34;
        stroke-width: 0px;
      }
    </style>
  </defs>
  <path class="cls-1" d="M0,15.53c.25-1.19.45-2.4.77-3.57C2.73,4.74,8.7.13,16.22,0c4.06-.07,7.92.76,11.62,2.38.67.29.96.68.93,1.44-.06,1.67-.02,3.33-.02,5.31-.27-.38-.42-.49-.45-.63-.78-3.74-3.3-5.85-6.79-6.81C16.34.26,11.51.67,7.76,5.08c-2.08,2.45-2.96,5.44-3.33,8.55-.43,3.62-.35,7.23.79,10.75,2.15,6.59,6.65,9.62,13.59,9.16,2.76-.18,5.29-.89,7.11-3.12.39-.48.68-1.19.69-1.8.02-2.63.06-5.26-.17-7.88-.19-2.25-.9-2.73-3.18-2.86-.21-.01-.43-.07-.63-.3h11.39c.01.08.02.16.03.23-.36.03-.72.05-1.07.09-1.62.18-2.62,1.04-2.76,2.64-.2,2.29-.25,4.6-.37,7,1.99-.5,3.76-1.08,5.58-1.36,7.08-1.1,13.32.4,17.78,6.42,5.79,7.81,4.17,21.6-5.95,26.31-4.15,1.93-8.52,1.94-12.89.95-1.93-.44-3.79-1.2-5.68-1.81-.65-.21-.91-.62-.89-1.34.06-1.69.02-3.39.02-5.25.25.19.39.24.4.31.91,4.45,4.04,6.51,8.16,7.33,4.54.91,8.75.33,12.08-3.31,2.36-2.59,3.33-5.77,3.72-9.13.44-3.82.27-7.62-1.05-11.31-3.03-8.42-10.62-9.76-17.37-7.58-.56.18-1.08.52-1.57.85-1.49,1.01-2.48,2.21-2.29,4.23.21,2.25,0,4.55.22,6.8.22,2.32.91,2.8,3.25,2.92.19,0,.38.05.57.27h-11.39c-.01-.05-.03-.11-.04-.16.34-.04.68-.09,1.02-.12,1.61-.17,2.64-.94,2.79-2.47.24-2.36.28-4.75.41-7.19-1.98.5-3.73,1.07-5.52,1.36-6.25,1.03-11.93-.05-16.51-4.78-2.55-2.64-3.91-5.86-4.44-9.46-.06-.39-.17-.76-.26-1.14,0-1.12,0-2.23,0-3.35Z"/>
  <g>
    <path class="cls-1" d="M85.89,16.29c-.51,0-.89.08-1.14.23-.25.16-.41.45-.49.88-.07.43-.11,1.07-.11,1.92v2.51c-.62.39-1.41.74-2.36,1.03s-1.95.44-2.98.44c-1.09,0-2.08-.19-2.96-.57s-1.64-.9-2.27-1.56c-.63-.66-1.11-1.43-1.45-2.32-.34-.88-.51-1.83-.51-2.84,0-1.35.28-2.57.84-3.66.56-1.09,1.37-1.97,2.42-2.62s2.32-.98,3.8-.98c.69,0,1.36.07,2.02.2.66.14,1.25.3,1.78.49s.92.37,1.17.55v2.59l-.22-.04c-.11-.77-.4-1.4-.87-1.88-.47-.49-1.05-.85-1.73-1.08-.68-.24-1.4-.35-2.15-.35-1.19,0-2.17.29-2.96.88-.79.59-1.38,1.39-1.76,2.42-.38,1.03-.58,2.19-.58,3.5s.21,2.48.62,3.51c.41,1.03,1.02,1.84,1.83,2.43.81.59,1.8.88,2.97.88.98,0,1.79-.14,2.42-.41.63-.28,1.13-.7,1.51-1.28v-1.58c0-.73-.01-1.31-.04-1.75-.03-.44-.09-.77-.2-.99-.11-.22-.28-.37-.51-.44s-.55-.1-.97-.1l-.04-.2h4.96l-.04.2Z"/>
    <path class="cls-1" d="M101.61,15.88c0,1.38-.28,2.63-.83,3.75s-1.35,2.02-2.4,2.68c-1.04.66-2.31.99-3.79.99-1.11,0-2.1-.19-2.98-.58-.88-.38-1.64-.91-2.27-1.59-.63-.67-1.11-1.46-1.44-2.37s-.5-1.87-.5-2.89c0-1.38.28-2.6.84-3.67.56-1.07,1.36-1.92,2.41-2.53,1.04-.61,2.3-.92,3.77-.92s2.76.31,3.83.92c1.07.61,1.9,1.46,2.48,2.53.58,1.07.87,2.3.87,3.67ZM99.85,16.02c0-1.31-.21-2.47-.62-3.5-.41-1.02-1.02-1.83-1.82-2.42-.8-.59-1.8-.88-2.98-.88s-2.15.29-2.93.88c-.78.59-1.37,1.39-1.75,2.42-.38,1.03-.58,2.19-.58,3.5s.21,2.48.62,3.51,1.02,1.84,1.83,2.43c.81.59,1.8.88,2.97.88s2.17-.29,2.94-.88c.78-.59,1.36-1.4,1.74-2.43.38-1.03.58-2.2.58-3.51Z"/>
    <path class="cls-1" d="M113.29,20.21l.24-.04v2.93h-10.2l.04-.24c.46,0,.82-.04,1.08-.13.26-.09.46-.27.59-.56s.21-.71.25-1.29c.04-.58.06-1.36.06-2.35v-5.02c0-.98-.02-1.77-.06-2.35-.04-.58-.12-1.01-.25-1.3s-.32-.48-.59-.57c-.26-.09-.62-.13-1.08-.13l-.04-.22h9.45v2.91l-.24-.04c0-.94-.5-1.58-1.51-1.91s-2.43-.5-4.28-.5v6.37c.96,0,1.71-.03,2.27-.1.55-.07.96-.18,1.23-.33.27-.15.44-.38.52-.67s.11-.66.11-1.1l.22-.04v4.92l-.22-.04c0-.45-.04-.81-.11-1.1s-.25-.51-.52-.67c-.27-.16-.68-.26-1.23-.32-.55-.06-1.31-.09-2.27-.09v2.61c0,.93.02,1.65.06,2.16.04.51.12.89.23,1.12s.29.41.54.52c1.12,0,2.11-.08,2.96-.24.86-.16,1.53-.42,2.01-.78s.73-.83.73-1.41Z"/>
    <path class="cls-1" d="M125.71,8.94h5.02l-.04.22c-.46,0-.83.04-1.12.13-.29.09-.51.27-.67.56s-.26.72-.32,1.29c-.06.58-.09,1.36-.09,2.35v9.71h-.63l-9.53-12.04v7.32c0,.98.03,1.77.09,2.36.06.59.17,1.03.32,1.31.16.29.37.48.66.57.28.09.65.13,1.11.13l.04.24h-4.98l.04-.24c.46,0,.83-.04,1.12-.13.29-.09.51-.28.67-.57.15-.29.26-.73.32-1.31.06-.59.09-1.37.09-2.36v-5c0-.98-.03-1.77-.09-2.35-.06-.58-.17-1.01-.32-1.29-.16-.28-.38-.47-.67-.56-.29-.09-.66-.13-1.12-.13l-.04-.22h2.75l9.65,12.04v-7.49c0-.98-.03-1.77-.09-2.35-.06-.58-.17-1.01-.33-1.29-.16-.28-.39-.47-.68-.56-.29-.09-.67-.13-1.12-.13l-.04-.22Z"/>
    <path class="cls-1" d="M141.87,22.21c0-.31-.09-.74-.27-1.29-.18-.55-.45-1.3-.8-2.25h-6.17c-.28.84-.5,1.52-.65,2.06s-.22.96-.22,1.27c0,.39.13.63.38.72.26.09.64.13,1.15.13l.04.24h-4.55l.04-.24c.35,0,.66-.04.92-.12.26-.08.51-.26.74-.53.23-.27.47-.69.73-1.25s.55-1.34.89-2.33l1.8-5.2c.27-.77.47-1.37.61-1.81s.23-.78.27-1.02c.05-.24.07-.45.07-.63,0-.31-.09-.52-.28-.64-.19-.11-.55-.17-1.09-.17l-.04-.22h3.34l3.58,9.69c.36.98.66,1.76.9,2.33.24.57.46.98.66,1.25.2.27.42.45.65.53.23.08.53.12.89.12l.04.24h-5.06l.04-.24c.47,0,.82-.04,1.05-.11s.34-.25.34-.54ZM137.64,10.04l-2.85,8.15h5.85l-2.99-8.15Z"/>
    <path class="cls-1" d="M150.47,15.88c.82.04,1.52.24,2.09.6.57.36,1.07.8,1.49,1.34.42.53.8,1.09,1.15,1.67.35.58.71,1.13,1.09,1.64.38.51.81.93,1.29,1.25.49.32,1.07.49,1.76.49l.04.24h-2.81c-.35,0-.71-.17-1.06-.5s-.72-.76-1.08-1.27-.74-1.07-1.13-1.65c-.39-.58-.8-1.13-1.22-1.66-.42-.53-.87-.96-1.35-1.31-.47-.34-.98-.52-1.52-.54v2.35c0,.98.02,1.77.05,2.35.03.58.11,1.01.24,1.29.13.28.32.47.59.56.26.09.62.13,1.08.13l.04.24h-5.44l.04-.24c.46,0,.82-.04,1.08-.13.26-.09.46-.27.59-.56s.21-.71.25-1.29c.04-.58.06-1.36.06-2.35v-5.02c0-.98-.02-1.77-.06-2.35-.04-.58-.12-1.01-.25-1.3s-.32-.48-.59-.57c-.26-.09-.62-.13-1.08-.13l-.04-.22h5.44l-.04.22c-.46,0-.82.04-1.08.13-.26.09-.46.28-.59.57-.13.29-.21.73-.24,1.3-.03.58-.05,1.36-.05,2.35v2.31c.35-.07.75-.24,1.19-.52.44-.28.9-.63,1.36-1.06.46-.43.88-.9,1.26-1.41.38-.51.7-1.02.93-1.54.24-.52.35-1.01.35-1.47,0-.23-.07-.4-.2-.51-.14-.11-.4-.16-.79-.16l-.04-.22h5.02l-.04.22c-.69,0-1.25.09-1.7.28-.44.19-.82.44-1.11.77s-.58.71-.84,1.14c-.26.44-.56.91-.9,1.41s-.76,1.01-1.26,1.55c-.51.53-1.16,1.06-1.97,1.57Z"/>
    <path class="cls-1" d="M168.63,22.21c0-.31-.09-.74-.27-1.29-.18-.55-.45-1.3-.8-2.25h-6.17c-.28.84-.5,1.52-.65,2.06s-.22.96-.22,1.27c0,.39.13.63.38.72.26.09.64.13,1.15.13l.04.24h-4.55l.04-.24c.35,0,.66-.04.92-.12.26-.08.51-.26.74-.53.23-.27.47-.69.73-1.25s.55-1.34.89-2.33l1.8-5.2c.27-.77.47-1.37.61-1.81s.23-.78.27-1.02c.05-.24.07-.45.07-.63,0-.31-.09-.52-.28-.64-.19-.11-.55-.17-1.09-.17l-.04-.22h3.34l3.58,9.69c.36.98.66,1.76.9,2.33.24.57.46.98.66,1.25.2.27.42.45.65.53.23.08.53.12.89.12l.04.24h-5.06l.04-.24c.47,0,.82-.04,1.05-.11s.34-.25.34-.54ZM164.41,10.04l-2.85,8.15h5.85l-2.99-8.15Z"/>
    <path class="cls-1" d="M182.45,8.94h5.02l-.04.22c-.46,0-.83.04-1.12.13-.29.09-.51.27-.67.56s-.26.72-.32,1.29c-.06.58-.09,1.36-.09,2.35v9.71h-.63l-9.53-12.04v7.32c0,.98.03,1.77.09,2.36.06.59.17,1.03.32,1.31.16.29.37.48.66.57.28.09.65.13,1.11.13l.04.24h-4.98l.04-.24c.46,0,.83-.04,1.12-.13.29-.09.51-.28.67-.57.15-.29.26-.73.32-1.31.06-.59.09-1.37.09-2.36v-5c0-.98-.03-1.77-.09-2.35-.06-.58-.17-1.01-.32-1.29-.16-.28-.38-.47-.67-.56-.29-.09-.66-.13-1.12-.13l-.04-.22h2.75l9.65,12.04v-7.49c0-.98-.03-1.77-.09-2.35-.06-.58-.17-1.01-.33-1.29-.16-.28-.39-.47-.68-.56-.29-.09-.67-.13-1.12-.13l-.04-.22Z"/>
    <path class="cls-1" d="M75.97,39.16v5.02c0,.99.02,1.77.06,2.35.04.58.12,1.01.25,1.29.13.28.32.47.59.56.26.09.62.13,1.08.13l.04.24h-5.46l.04-.24c.46,0,.82-.04,1.09-.13.27-.09.47-.27.6-.56.13-.28.21-.71.24-1.29.03-.58.05-1.36.05-2.35v-5.02c0-.98-.02-1.77-.05-2.35s-.11-1.01-.24-1.3c-.13-.29-.33-.48-.6-.57-.27-.09-.63-.13-1.09-.13l-.04-.22h5.46l-.04.22c-.46,0-.82.04-1.08.13-.26.09-.46.28-.59.57-.13.29-.21.72-.25,1.3s-.06,1.36-.06,2.35Z"/>
    <path class="cls-1" d="M89.93,34.59h5.02l-.04.22c-.46,0-.83.04-1.12.13s-.51.27-.67.56-.26.71-.32,1.29-.09,1.36-.09,2.35v9.71h-.63l-9.53-12.04v7.32c0,.98.03,1.77.09,2.36s.17,1.03.32,1.32c.15.29.37.48.66.57s.65.13,1.11.13l.04.24h-4.98l.04-.24c.46,0,.83-.04,1.12-.13s.51-.28.67-.57c.16-.29.26-.73.32-1.32.06-.59.09-1.37.09-2.36v-5c0-.98-.03-1.77-.09-2.35-.06-.58-.17-1.01-.32-1.29-.15-.28-.38-.47-.67-.56s-.66-.13-1.12-.13l-.04-.22h2.75l9.65,12.04v-7.49c0-.98-.03-1.77-.09-2.35-.06-.58-.17-1.01-.33-1.29-.16-.28-.39-.47-.68-.56s-.66-.13-1.12-.13l-.04-.22Z"/>
    <path class="cls-1" d="M96.75,34.59h4.09c.57,0,1.19.02,1.88.05.69.03,1.39.12,2.11.25.72.13,1.42.35,2.09.66.67.3,1.28.71,1.81,1.22.53.51.96,1.17,1.27,1.97.32.8.48,1.78.48,2.92s-.16,2.09-.48,2.88c-.32.79-.74,1.44-1.25,1.96-.52.52-1.09.93-1.71,1.23-.62.3-1.24.53-1.87.67s-1.2.23-1.73.27c-.53.04-.94.06-1.25.06h-5.44l.04-.24c.46,0,.82-.04,1.08-.13.26-.09.46-.27.59-.56s.21-.71.25-1.29c.04-.58.06-1.36.06-2.35v-5.02c0-.98-.02-1.77-.06-2.35-.04-.58-.12-1.01-.25-1.3s-.32-.48-.59-.57c-.26-.09-.62-.13-1.08-.13l-.04-.22ZM100.93,48.26c.12.01.25.02.39.02h.42c.58,0,1.19-.06,1.83-.17.64-.11,1.27-.31,1.88-.6.61-.28,1.17-.68,1.66-1.18.49-.5.88-1.14,1.17-1.9.29-.76.43-1.68.43-2.76s-.14-1.98-.43-2.74c-.29-.76-.68-1.39-1.16-1.89s-1.03-.89-1.64-1.18-1.23-.5-1.87-.62-1.26-.18-1.85-.18-1.13.04-1.58.12v9.25c0,.93.01,1.65.04,2.16.03.51.09.89.2,1.13.11.24.28.43.51.55Z"/>
    <path class="cls-1" d="M126.1,41.53c0,1.38-.28,2.63-.83,3.75-.55,1.13-1.35,2.02-2.4,2.68-1.04.66-2.31.99-3.79.99-1.11,0-2.1-.19-2.98-.58-.88-.38-1.64-.91-2.27-1.59-.63-.67-1.11-1.46-1.44-2.37-.33-.9-.5-1.87-.5-2.89,0-1.38.28-2.6.84-3.67s1.36-1.92,2.41-2.53c1.04-.61,2.3-.92,3.77-.92s2.76.31,3.83.92c1.07.61,1.9,1.46,2.48,2.53.58,1.07.87,2.3.87,3.67ZM124.34,41.67c0-1.31-.21-2.47-.62-3.5-.41-1.03-1.02-1.83-1.82-2.42-.8-.59-1.8-.88-2.98-.88s-2.15.29-2.93.88c-.78.59-1.37,1.39-1.75,2.42-.38,1.02-.58,2.19-.58,3.5s.21,2.48.62,3.51c.41,1.03,1.02,1.84,1.83,2.43.81.59,1.8.88,2.97.88s2.17-.29,2.94-.88c.78-.59,1.36-1.4,1.74-2.43.38-1.03.58-2.2.58-3.51Z"/>
    <path class="cls-1" d="M137.73,34.59h5.02l-.04.22c-.46,0-.83.04-1.12.13s-.51.27-.67.56-.26.71-.32,1.29-.09,1.36-.09,2.35v9.71h-.63l-9.53-12.04v7.32c0,.98.03,1.77.09,2.36.06.59.17,1.03.32,1.32s.37.48.66.57.65.13,1.11.13l.04.24h-4.98l.04-.24c.46,0,.83-.04,1.12-.13s.51-.28.67-.57c.15-.29.26-.73.32-1.32s.09-1.37.09-2.36v-5c0-.98-.03-1.77-.09-2.35s-.17-1.01-.32-1.29c-.16-.28-.38-.47-.67-.56s-.66-.13-1.12-.13l-.04-.22h2.75l9.65,12.04v-7.49c0-.98-.03-1.77-.09-2.35-.06-.58-.17-1.01-.33-1.29-.16-.28-.39-.47-.68-.56-.29-.09-.67-.13-1.12-.13l-.04-.22Z"/>
    <path class="cls-1" d="M154.5,45.86l.24-.04v2.93h-10.2l.04-.24c.46,0,.82-.04,1.08-.13.26-.09.46-.27.59-.56s.21-.71.25-1.29c.04-.58.06-1.36.06-2.35v-5.02c0-.98-.02-1.77-.06-2.35-.04-.58-.12-1.01-.25-1.3s-.32-.48-.59-.57c-.26-.09-.62-.13-1.08-.13l-.04-.22h9.45v2.91l-.24-.04c0-.94-.5-1.58-1.51-1.91-1-.33-2.43-.5-4.28-.5v6.37c.96,0,1.71-.03,2.27-.1.55-.07.96-.18,1.23-.33.27-.16.44-.38.52-.67s.11-.66.11-1.1l.22-.04v4.92l-.22-.04c0-.45-.04-.81-.11-1.1s-.25-.51-.52-.67c-.27-.15-.68-.26-1.23-.32-.55-.06-1.31-.09-2.27-.09v2.61c0,.93.02,1.65.06,2.17.04.51.12.89.23,1.12.11.24.29.41.54.52,1.12,0,2.11-.08,2.96-.24s1.53-.42,2.01-.78c.49-.36.73-.83.73-1.41Z"/>
    <path class="cls-1" d="M161.02,48.49c.55,0,1.07-.09,1.54-.27.47-.18.86-.48,1.15-.89.3-.41.44-.96.44-1.65,0-.57-.17-1.06-.5-1.49-.34-.42-.77-.81-1.31-1.15-.53-.34-1.1-.68-1.69-1.02-.59-.34-1.16-.7-1.69-1.09-.53-.39-.97-.84-1.3-1.36-.34-.51-.51-1.12-.51-1.82s.18-1.26.54-1.76c.36-.5.84-.89,1.44-1.16.6-.28,1.26-.41,1.99-.41.66,0,1.33.08,2.01.24.68.16,1.25.36,1.71.59,0,.63-.03,1.25-.1,1.84s-.13,1.14-.2,1.64l-.3-.08c0-.93-.16-1.67-.48-2.23-.32-.55-.71-.95-1.19-1.19-.48-.24-.95-.36-1.43-.36-.78,0-1.42.23-1.9.7-.49.46-.73,1.06-.73,1.77,0,.59.17,1.1.51,1.52.34.42.77.79,1.3,1.12.53.33,1.1.65,1.69.97.59.32,1.16.67,1.69,1.04.53.38.97.83,1.3,1.35.34.52.51,1.14.51,1.87,0,.89-.22,1.61-.66,2.17-.44.55-1,.96-1.69,1.21-.69.26-1.41.38-2.16.38-.42,0-.87-.04-1.35-.13-.48-.09-.94-.23-1.39-.42s-.83-.43-1.15-.73c0-.63.03-1.21.08-1.74.05-.53.11-1.04.16-1.54l.3.06c0,.92.15,1.68.46,2.28.31.6.72,1.04,1.23,1.33.51.28,1.07.42,1.66.42Z"/>
    <path class="cls-1" d="M171.07,39.16v5.02c0,.99.02,1.77.06,2.35.04.58.12,1.01.25,1.29.13.28.32.47.59.56.26.09.62.13,1.08.13l.04.24h-5.46l.04-.24c.46,0,.82-.04,1.09-.13.27-.09.47-.27.6-.56s.21-.71.24-1.29c.03-.58.05-1.36.05-2.35v-5.02c0-.98-.02-1.77-.05-2.35-.03-.58-.12-1.01-.24-1.3s-.33-.48-.6-.57c-.27-.09-.63-.13-1.09-.13l-.04-.22h5.46l-.04.22c-.46,0-.82.04-1.08.13-.26.09-.46.28-.59.57-.13.29-.21.72-.25,1.3-.04.58-.06,1.36-.06,2.35Z"/>
    <path class="cls-1" d="M184.46,47.86c0-.31-.09-.74-.27-1.29-.18-.55-.45-1.3-.8-2.25h-6.17c-.28.84-.5,1.52-.65,2.06-.15.54-.22.96-.22,1.27,0,.39.13.63.38.72s.64.13,1.15.13l.04.24h-4.55l.04-.24c.35,0,.66-.04.92-.12.26-.08.51-.26.74-.53.23-.27.47-.69.73-1.25s.55-1.34.89-2.33l1.8-5.2c.27-.77.47-1.37.61-1.81s.23-.78.27-1.02c.05-.24.07-.45.07-.63,0-.31-.09-.52-.28-.64-.19-.11-.55-.17-1.09-.17l-.04-.22h3.34l3.58,9.69c.36.98.66,1.76.9,2.33.24.57.46.98.66,1.25.2.27.42.44.65.53.23.08.53.12.89.12l.04.24h-5.06l.04-.24c.47,0,.82-.04,1.05-.11.23-.07.34-.25.34-.54ZM180.24,35.68l-2.85,8.15h5.85l-2.99-8.15Z"/>
  </g>
</svg>