<?xml version="1.0" encoding="UTF-8"?>
<svg  id="Layer_1" data-name="Layer 1" xmlns="http://www.w3.org/2000/svg" viewBox="0 0 126.66 135.6">
  <defs>
    <style>
      .cls-1 {
        fill: #463b34;
        stroke-width: 0px;
      }
    </style>
  </defs>
  <path class="cls-1" d="M0,34.8c.57-2.67,1.01-5.37,1.73-8.01C6.11,10.61,19.49.3,36.33,0c9.09-.16,17.74,1.71,26.04,5.33,1.5.66,2.14,1.52,2.08,3.22-.13,3.73-.04,7.47-.04,11.9-.61-.84-.94-1.1-1.01-1.42-1.75-8.38-7.4-13.11-15.21-15.26-11.59-3.2-22.43-2.29-30.83,7.6-4.67,5.49-6.64,12.18-7.47,19.16-.97,8.11-.79,16.2,1.78,24.08,4.81,14.77,14.89,21.55,30.45,20.53,6.18-.41,11.85-2,15.94-6.99.88-1.07,1.52-2.67,1.54-4.03.05-5.88.13-11.79-.38-17.64-.43-5.04-2.01-6.11-7.13-6.4-.48-.03-.96-.15-1.41-.67h25.52c.02.18.05.35.07.53-.8.07-1.6.11-2.4.2-3.64.41-5.87,2.33-6.18,5.92-.45,5.13-.56,10.3-.83,15.68,4.46-1.11,8.43-2.42,12.51-3.05,15.86-2.47,29.84.89,39.83,14.38,12.96,17.49,9.34,48.39-13.33,58.96-9.3,4.33-19.09,4.34-28.89,2.13-4.33-.98-8.49-2.68-12.72-4.06-1.45-.47-2.04-1.38-1.99-3,.13-3.79.04-7.59.04-11.76.56.43.87.54.91.71,2.04,9.96,9.06,14.58,18.28,16.43,10.17,2.04,19.61.74,27.06-7.42,5.29-5.8,7.47-12.94,8.33-20.46.98-8.56.62-17.07-2.36-25.34-6.79-18.86-23.79-21.87-38.91-16.99-1.25.4-2.42,1.16-3.52,1.91-3.33,2.26-5.55,4.96-5.12,9.48.48,5.05,0,10.18.5,15.23.5,5.2,2.04,6.27,7.29,6.54.43.02.86.11,1.28.6h-25.51c-.03-.12-.07-.24-.1-.36.76-.09,1.51-.2,2.27-.28,3.6-.38,5.91-2.11,6.25-5.53.53-5.3.64-10.64.93-16.11-4.44,1.11-8.36,2.39-12.37,3.05-14,2.3-26.74-.11-37-10.71C4.79,60.14,1.76,52.92.57,44.86c-.13-.86-.38-1.71-.57-2.56,0-2.5,0-5,0-7.5Z"/>
</svg>